<svg width="22" height="22" viewBox="0 0 22 22" fill="none"
    xmlns="http://www.w3.org/2000/svg">
    <mask id="mask0_6311_8747" style="mask-type:alpha" maskUnits="userSpaceOnUse" x="0" y="0" width="22" height="22">
        <rect x="22" y="22" width="22" height="22" transform="rotate(180 22 22)" fill="#D9D9D9"/>
    </mask>
    <g mask="url(#mask0_6311_8747)">
        <path d="M11 6.41663C10.7403 6.41663 10.5224 6.50463 10.3464 6.68063C10.171 6.85602 10.0833 7.07357 10.0833 7.33329C10.0833 7.59302 10.171 7.81088 10.3464 7.98688C10.5224 8.16227 10.7403 8.24996 11 8.24996C11.2597 8.24996 11.4773 8.16227 11.6527 7.98688C11.8287 7.81088 11.9167 7.59302 11.9167 7.33329C11.9167 7.07357 11.8287 6.85602 11.6527 6.68063C11.4773 6.50463 11.2597 6.41663 11 6.41663ZM11.9167 10.0833L10.0833 10.0833L10.0833 15.5833L11.9167 15.5833L11.9167 10.0833ZM11 1.83329C12.268 1.83329 13.4597 2.07407 14.575 2.55563C15.6903 3.03657 16.6604 3.68954 17.4854 4.51454C18.3104 5.33954 18.9634 6.30968 19.4443 7.42496C19.9259 8.54024 20.1667 9.7319 20.1667 11C20.1667 12.268 19.9259 13.4597 19.4443 14.575C18.9634 15.6902 18.3104 16.6604 17.4854 17.4854C16.6604 18.3104 15.6903 18.9637 14.575 19.4452C13.4597 19.9262 12.268 20.1666 11 20.1666C9.73193 20.1666 8.54027 19.9262 7.42499 19.4452C6.30971 18.9637 5.33957 18.3104 4.51457 17.4854C3.68957 16.6604 3.0366 15.6902 2.55566 14.575C2.0741 13.4597 1.83332 12.268 1.83332 11C1.83332 9.73191 2.0741 8.54024 2.55566 7.42496C3.0366 6.30968 3.68957 5.33954 4.51457 4.51454C5.33957 3.68954 6.30971 3.03657 7.42499 2.55563C8.54027 2.07407 9.73193 1.83329 11 1.83329ZM11 3.66663C8.95277 3.66663 7.21874 4.37705 5.79791 5.79788C4.37707 7.21871 3.66666 8.95274 3.66666 11C3.66666 13.0472 4.37707 14.7812 5.79791 16.202C7.21874 17.6229 8.95277 18.3333 11 18.3333C13.0472 18.3333 14.7812 17.6229 16.2021 16.202C17.6229 14.7812 18.3333 13.0472 18.3333 11C18.3333 8.95274 17.6229 7.21871 16.2021 5.79788C14.7812 4.37704 13.0472 3.66663 11 3.66663Z" fill="#3988FF"/>
    </g>
</svg>
