<?xml version="1.0" encoding="UTF-8"?>
<svg width="20px" height="16px" viewBox="0 0 20 16" version="1.1" xmlns="http://www.w3.org/2000/svg" xmlns:xlink="http://www.w3.org/1999/xlink">
    <!-- Generator: Sketch 50.2 (55047) - http://www.bohemiancoding.com/sketch -->
    <title>back-arrow-black</title>
    <desc>Created with Sketch.</desc>
    <defs></defs>
    <g id="V1" stroke="none" stroke-width="1" fill="none" fill-rule="evenodd">
        <g id="DEBIN-Form" transform="translate(-14.000000, -35.000000)" fill="#000000">
            <path d="M17.4141722,42.0001797 L22.707197,36.7071383 C23.0976989,36.3166353 23.0974489,35.6836303 22.707197,35.2928773 C22.3166952,34.9023742 21.6836922,34.9023742 21.2929404,35.2928773 L14.2929076,42.292932 C13.9024058,42.683435 13.9024058,43.31669 14.2926576,43.706943 L21.2926904,50.7069977 C21.4879413,50.9022492 21.7439425,51 21.9999437,51 C22.2556949,51 22.5116961,50.9022492 22.707197,50.7067477 C23.0976989,50.3164947 23.0974489,49.6832397 22.707197,49.2929867 L17.4139222,44.0001953 L32.9999952,44.0001953 C33.5522478,44.0001953 34.0002499,43.5521918 33.9999999,43.0001875 C33.9999999,42.4479332 33.5522478,42.0001797 32.9999952,42.0001797 L17.4141722,42.0001797 Z" id="back-arrow-black"></path>
        </g>
    </g>
</svg>