<?xml version="1.0" encoding="utf-8"?>
<!-- Generator: Adobe Illustrator 23.0.1, SVG Export Plug-In . SVG Version: 6.00 Build 0)  -->
<svg version="1.1" id="Layer_1" xmlns="http://www.w3.org/2000/svg" xmlns:xlink="http://www.w3.org/1999/xlink" x="0px" y="0px"
	 viewBox="0 0 28.5 26.2" style="enable-background:new 0 0 28.5 26.2;" xml:space="preserve">
<style type="text/css">
	.st0{stroke:#000000;stroke-width:0.4;stroke-linecap:round;stroke-linejoin:round;}
	.st1{fill-rule:evenodd;clip-rule:evenodd;fill:#4B74FF;}
</style>
<title>filter</title>
<desc>Created with Sketch.</desc>
<g>
	<g>
		<path class="st0" d="M11.8,11.9c1.3,0,2.4-0.9,2.7-2.1H22c0.4,0,0.7-0.3,0.7-0.7S22.3,8.5,22,8.5h-7.5c-0.3-1.2-1.4-2.1-2.7-2.1
			c-1.3,0-2.4,0.9-2.7,2.1H1.8c-0.4,0-0.7,0.3-0.7,0.7s0.3,0.7,0.7,0.7h7.3C9.4,11,10.5,11.9,11.8,11.9z M10.3,9.1
			c0-0.8,0.6-1.4,1.4-1.4c0.8,0,1.4,0.6,1.4,1.4s-0.6,1.4-1.4,1.4C11,10.6,10.3,9.9,10.3,9.1z"/>
		<path class="st0" d="M19.9,18.7c1.5,0,2.7-1.2,2.7-2.7c0-1.5-1.2-2.7-2.7-2.7c-1.3,0-2.4,0.9-2.7,2.1H1.8c-0.4,0-0.7,0.3-0.7,0.7
			c0,0.4,0.3,0.7,0.7,0.7h15.4C17.5,17.8,18.6,18.7,19.9,18.7z M18.4,16c0-0.8,0.6-1.4,1.4-1.4c0.8,0,1.4,0.6,1.4,1.4
			c0,0.8-0.6,1.4-1.4,1.4C19.1,17.4,18.4,16.7,18.4,16z"/>
		<path class="st0" d="M6.5,23.4H22c0.4,0,0.7-0.3,0.7-0.7s-0.3-0.7-0.7-0.7H6.4c-0.3-1.2-1.4-2.1-2.7-2.1c-1.5,0-2.7,1.2-2.7,2.7
			c0,1.5,1.2,2.7,2.7,2.7C5.1,25.5,6.2,24.6,6.5,23.4z M2.4,22.8c0-0.8,0.6-1.4,1.4-1.4s1.4,0.6,1.4,1.4c0,0.8-0.6,1.4-1.4,1.4
			S2.4,23.6,2.4,22.8z"/>
	</g>
</g>
<g id="V1">
	<g id="Detalle-Poincenot-Movimientos" transform="translate(-338.000000, -184.000000)">
		<g id="filter" transform="translate(339.000000, 184.000000)">
			<circle id="Oval-9" class="st1" cx="21.7" cy="5.8" r="5.3"/>
		</g>
	</g>
</g>
</svg>
