<?xml version="1.0" encoding="utf-8"?>
<!-- Generator: Adobe Illustrator 23.0.1, SVG Export Plug-In . SVG Version: 6.00 Build 0)  -->
<svg version="1.1" id="Layer_1" xmlns="http://www.w3.org/2000/svg" xmlns:xlink="http://www.w3.org/1999/xlink" x="0px" y="0px"
	 viewBox="0 0 329.2 256.9" style="enable-background:new 0 0 329.2 256.9;" xml:space="preserve">
<style type="text/css">
	.st0{fill:#333333;}
	.st1{fill:#FFFFFF;}
</style>
<g>
	<g>
		<path class="st0" d="M66.2,128h27.9l41.7,117.9h-26.7l-7.8-24.2H57.9l-8,24.2H24.1L66.2,128z M64.6,201.3h30.2l-14.9-46.4
			L64.6,201.3z"/>
		<path class="st1" d="M94.1,128l41.7,117.9h-26.7l-7.8-24.2H57.9l-8,24.2H24.1L66.2,128H94.1 M64.6,201.3h30.2l-14.9-46.4
			L64.6,201.3 M101.2,118h-7.1H66.2h-7l-2.4,6.6L14.7,242.5l-4.8,13.4h14.2h25.8h7.2l2.3-6.9l5.7-17.4H94l5.6,17.3l2.2,6.9h7.3h26.7
			h14.1l-4.7-13.3l-41.7-117.9L101.2,118L101.2,118z M78.4,191.3l1.4-4.1l1.3,4.1H78.4L78.4,191.3z"/>
	</g>
</g>
<g>
	<path class="st0" d="M186.3,44.4h47.6l71.3,201.5h-45.7l-13.3-41.4H172l-13.7,41.4h-44L186.3,44.4z M183.5,169.8h51.6l-25.5-79.3
		L183.5,169.8z"/>
	<path class="st1" d="M233.9,44.4l71.3,201.5h-45.7l-13.3-41.4H172l-13.7,41.4h-44l71.9-201.5L233.9,44.4 M183.5,169.8h51.6
		l-25.5-79.3L183.5,169.8 M241,34.4h-7.1h-47.6h-7l-2.4,6.6L105,242.5l-4.8,13.4h14.2h44h7.2l2.3-6.9l11.4-34.6H239l11.1,34.5
		l2.2,6.9h7.3h45.7h14.1l-4.7-13.3L243.4,41L241,34.4L241,34.4z M197.3,159.8l12.2-37l11.9,37H197.3L197.3,159.8z"/>
</g>
<polygon class="st0" points="9.1,83.9 154.4,83.9 81.8,0.4 "/>
</svg>
