<?xml version="1.0" encoding="utf-8"?>
<!-- Generator: Adobe Illustrator 17.0.0, SVG Export Plug-In . SVG Version: 6.00 Build 0)  -->
<!DOCTYPE svg PUBLIC "-//W3C//DTD SVG 1.1//EN" "http://www.w3.org/Graphics/SVG/1.1/DTD/svg11.dtd">
<svg version="1.1" id="Layer_1" xmlns="http://www.w3.org/2000/svg" xmlns:xlink="http://www.w3.org/1999/xlink" x="0px" y="0px"
	 width="19px" height="19px" viewBox="0 0 19 19" enable-background="new 0 0 19 19" xml:space="preserve">
<title>Group 3</title>
<desc>Created with Sketch.</desc>
<g id="Page-1">
	<g id="Group-3" transform="translate(1.000000, 1.000000)">
		<path id="Combined-Shape" stroke="#000000" stroke-linecap="round" stroke-linejoin="round" d="M7.574,8.498L0.237,1.161
			C-0.05,0.874-0.076,0.434,0.179,0.179S0.874-0.05,1.161,0.237l7.337,7.337l7.337-7.337c0.287-0.287,0.727-0.313,0.982-0.058
			s0.229,0.695-0.058,0.982L9.538,8.383l0.024,0.006l0.43,0.68l6.767,6.767c0.287,0.287,0.313,0.727,0.058,0.982
			c-0.255,0.255-0.695,0.229-0.982-0.058L8.498,9.423L1.161,16.76c-0.287,0.287-0.727,0.313-0.982,0.058s-0.229-0.695,0.058-0.982
			L7.574,8.498z"/>
	</g>
</g>
</svg>
