<?xml version="1.0" encoding="utf-8"?>
<!-- Generator: Adobe Illustrator 17.0.0, SVG Export Plug-In . SVG Version: 6.00 Build 0)  -->
<!DOCTYPE svg PUBLIC "-//W3C//DTD SVG 1.1//EN" "http://www.w3.org/Graphics/SVG/1.1/DTD/svg11.dtd">
<svg version="1.1" id="Layer_1" xmlns="http://www.w3.org/2000/svg" xmlns:xlink="http://www.w3.org/1999/xlink" x="0px" y="0px"
	 width="549.275px" height="418.841px" viewBox="0 0 549.275 418.841" enable-background="new 0 0 549.275 418.841"
	 xml:space="preserve">
<g>
	<g>
		<g>
			<path fill="none" stroke="#4B74FF" stroke-width="6.7874" stroke-linecap="round" stroke-miterlimit="10" d="M106.224,64.368
				c0.533-2.358,0.824-4.808,0.824-7.328c0-18.272-14.812-33.084-33.084-33.084c-16.284,0-29.81,11.767-32.563,27.26
				c-0.174-0.004-0.346-0.013-0.521-0.013c-13.923,0-25.211,11.287-25.211,25.211s11.287,25.21,25.211,25.21h46.459"/>
			<path fill="none" stroke="#4B74FF" stroke-width="6.7874" stroke-linecap="round" stroke-miterlimit="10" d="M60.975,61.188
				c-4.604-6.066-11.892-9.984-20.095-9.984c-13.923,0-25.211,11.287-25.211,25.211"/>
		</g>
		<path fill="none" stroke="#4B74FF" stroke-width="6.7874" stroke-linecap="round" stroke-miterlimit="10" d="M100.872,76.829
			c0-8.932,7.241-16.173,16.173-16.173s16.173,7.241,16.173,16.173h52.981"/>
		
			<line fill="none" stroke="#4B74FF" stroke-width="6.7874" stroke-linecap="round" stroke-miterlimit="10" x1="100.703" y1="101.488" x2="126.755" y2="101.488"/>
		
			<line fill="none" stroke="#4B74FF" stroke-width="6.7874" stroke-linecap="round" stroke-miterlimit="10" x1="202.243" y1="76.415" x2="202.243" y2="76.415"/>
	</g>
	<g>
		
			<line fill="none" stroke="#4B74FF" stroke-width="6.7874" stroke-linecap="round" stroke-miterlimit="10" x1="141.108" y1="17.555" x2="141.108" y2="35.647"/>
		
			<line fill="none" stroke="#4B74FF" stroke-width="6.7874" stroke-linecap="round" stroke-miterlimit="10" x1="150.153" y1="26.601" x2="132.062" y2="26.601"/>
	</g>
</g>
<g>
	<path fill="none" stroke="#4B74FF" stroke-width="6.7874" stroke-linecap="round" stroke-miterlimit="10" d="M362.779,48.505
		c-0.125,0-0.247,0.007-0.371,0.009c-1.961-11.037-11.597-19.42-23.198-19.42c-13.017,0-23.569,10.552-23.569,23.569
		c0,1.795,0.207,3.54,0.587,5.22c-1.116-0.299-2.288-0.46-3.498-0.46c-7.456,0-13.501,6.045-13.501,13.501
		c0,6.859,5.117,12.52,11.741,13.383l1.044,0.118h50.766c9.919,0,17.96-8.041,17.96-17.96S372.698,48.505,362.779,48.505z"/>
	<path fill="none" stroke="#4B74FF" stroke-width="6.7874" stroke-linecap="round" stroke-miterlimit="10" d="M348.463,55.618
		c3.28-4.322,8.472-7.113,14.316-7.113c9.919,0,17.96,8.041,17.96,17.96"/>
	<path fill="none" stroke="#4B74FF" stroke-width="6.7874" stroke-linecap="round" stroke-miterlimit="10" d="M324.756,49.647
		c1.23-4.133,4.111-9.718,10.838-12.157"/>
</g>
<g>
	<g>
		<path fill="none" stroke="#4B74FF" stroke-width="6.7874" stroke-linecap="round" stroke-miterlimit="10" d="M393.668,179.125
			h62.697c6.689,0,12.112-5.423,12.112-12.112s-5.423-12.112-12.112-12.112c-0.084,0-0.167,0.005-0.25,0.007
			c-1.323-7.443-7.821-13.097-15.644-13.097c-8.778,0-15.895,7.116-15.895,15.895c0,1.21,0.14,2.387,0.396,3.52"/>
		<path fill="none" stroke="#4B74FF" stroke-width="6.7874" stroke-linecap="round" stroke-miterlimit="10" d="M446.712,159.698
			c2.212-2.915,5.713-4.797,9.654-4.797c6.689,0,12.112,5.423,12.112,12.112"/>
	</g>
	<g>
		<path fill="none" stroke="#4B74FF" stroke-width="6.7874" stroke-linecap="round" stroke-miterlimit="10" d="M509.632,177.886
			c13.24,0,23.973-10.733,23.973-23.973c0-13.24-10.733-23.973-23.973-23.973c-0.166,0-0.33,0.009-0.496,0.013
			c-2.618-14.733-15.48-25.923-30.965-25.923c-17.375,0-31.46,14.085-31.46,31.46c0,2.396,0.277,4.726,0.784,6.968"/>
		<path fill="none" stroke="#4B74FF" stroke-width="6.7874" stroke-linecap="round" stroke-miterlimit="10" d="M490.524,139.433
			c4.378-5.769,11.308-9.494,19.109-9.494c13.24,0,23.973,10.733,23.973,23.973"/>
		<path fill="none" stroke="#4B74FF" stroke-width="6.7874" stroke-linecap="round" stroke-miterlimit="10" d="M456.035,136.372
			c0,0,0.567-17.384,15.683-22.863"/>
	</g>
	
		<line fill="none" stroke="#4B74FF" stroke-width="6.7874" stroke-linecap="round" stroke-miterlimit="10" x1="383.257" y1="179.125" x2="383.257" y2="179.125"/>
</g>
<g>
	
		<line fill="none" stroke="#4B74FF" stroke-width="6.7874" stroke-linecap="round" stroke-miterlimit="10" x1="418.605" y1="106.551" x2="418.605" y2="123.603"/>
	
		<line fill="none" stroke="#4B74FF" stroke-width="6.7874" stroke-linecap="round" stroke-miterlimit="10" x1="427.131" y1="115.077" x2="410.079" y2="115.077"/>
</g>
<g>
	
		<line fill="none" stroke="#4B74FF" stroke-width="6.7874" stroke-linecap="round" stroke-miterlimit="10" x1="276.134" y1="19.379" x2="276.134" y2="34.444"/>
	
		<line fill="none" stroke="#4B74FF" stroke-width="6.7874" stroke-linecap="round" stroke-miterlimit="10" x1="283.666" y1="26.911" x2="268.601" y2="26.911"/>
</g>
<g>
	
		<line fill="none" stroke="#4B74FF" stroke-width="6.7874" stroke-linecap="round" stroke-linejoin="round" stroke-miterlimit="10" x1="207.407" y1="401.286" x2="207.407" y2="401.286"/>
	
		<polyline fill="none" stroke="#4B74FF" stroke-width="6.7874" stroke-linecap="round" stroke-linejoin="round" stroke-miterlimit="10" points="
		218.768,401.286 350.518,401.286 350.518,363.885 170.586,363.885 170.586,401.286 195.444,401.286 	"/>
	
		<line fill="none" stroke="#4B74FF" stroke-width="6.7874" stroke-linecap="round" stroke-linejoin="round" stroke-miterlimit="10" x1="227.193" y1="344.528" x2="345.333" y2="344.528"/>
	
		<line fill="none" stroke="#4B74FF" stroke-width="6.7874" stroke-linecap="round" stroke-linejoin="round" stroke-miterlimit="10" x1="407.125" y1="307.128" x2="227.193" y2="307.128"/>
	
		<polyline fill="none" stroke="#4B74FF" stroke-width="6.7874" stroke-linecap="round" stroke-linejoin="round" stroke-miterlimit="10" points="
		386.527,327.78 407.125,307.128 407.125,344.528 350.518,401.286 350.518,363.885 371.136,343.213 	"/>
	
		<polyline fill="none" stroke="#4B74FF" stroke-width="6.7874" stroke-linecap="round" stroke-linejoin="round" stroke-miterlimit="10" points="
		386.509,327.78 386.509,345.938 371.135,361.352 371.135,343.195 	"/>
	
		<line fill="none" stroke="#4B74FF" stroke-width="6.7874" stroke-linecap="round" stroke-linejoin="round" stroke-miterlimit="10" x1="227.193" y1="344.528" x2="207.887" y2="363.885"/>
	
		<polyline fill="none" stroke="#4B74FF" stroke-width="6.7874" stroke-linecap="round" stroke-linejoin="round" stroke-miterlimit="10" points="
		170.586,363.885 227.193,307.128 227.193,331.564 	"/>
	
		<line fill="none" stroke="#4B74FF" stroke-width="6.7874" stroke-linecap="round" stroke-linejoin="round" stroke-miterlimit="10" x1="355.857" y1="344.528" x2="355.857" y2="344.528"/>
</g>
<g>
	<g>
		<g>
			<path fill="#4B74FF" d="M181.881,194.857c0-16.394-11.919-36.195-26.717-36.196c-2.143,0-4.161,0.493-6.062,1.398
				c-3.546-2.79-7.229-5.239-10.924-7.087c-1.484-0.739-3.285-0.144-4.03,1.343c-0.739,1.484-0.141,3.288,1.343,4.029
				c2.911,1.456,5.826,3.295,8.652,5.406c-2.833,3.002-4.306,6.435-4.306,10.237c0,14.799,19.802,26.717,36.196,26.717
				C179.259,200.704,181.881,198.08,181.881,194.857z M175.875,194.698c-13.285-0.076-30.031-9.795-30.031-20.711
				c0-2.361,0.95-4.458,2.903-6.414c0.007-0.007,0.015-0.012,0.023-0.019c6.381,5.67,11.96,12.579,15.409,19.478
				c0.528,1.053,1.59,1.66,2.686,1.66c0.452,0,0.909-0.103,1.343-0.317c1.484-0.742,2.082-2.546,1.343-4.03
				c-3.441-6.878-8.83-13.746-15.037-19.611c0.218-0.017,0.427-0.068,0.649-0.068C166.08,164.667,175.799,181.416,175.875,194.698z"
				/>
			<path fill="#4B74FF" d="M253.357,237.943c-0.774-1.032-19.414-25.227-62.467-25.227c-1.66,0-3.003,1.343-3.003,3.003
				s1.343,3.003,3.003,3.003c40.079,0,57.487,22.597,57.657,22.822c0.592,0.789,1.496,1.202,2.405,1.202
				c0.628,0,1.261-0.196,1.801-0.601C254.078,241.152,254.348,239.269,253.357,237.943z"/>
			<path fill="#4B74FF" d="M121.82,218.723c0,6.232,6.071,24.025,33.034,24.025c13.772,0,21.755-1.918,28.799-3.61
				c5.355-1.284,9.971-2.396,16.247-2.396c13.608,0,39.838,11.314,48.366,28.371c0.528,1.053,1.59,1.66,2.686,1.66
				c0.452,0,0.909-0.103,1.343-0.317c1.484-0.742,2.082-2.546,1.343-4.03c-9.672-19.344-38.289-31.691-53.739-31.691
				c-6.986,0-12.165,1.244-17.649,2.56c-6.722,1.616-14.335,3.446-27.397,3.446c-22.06,0-27.028-13.344-27.028-18.019
				c0-3.613,1.173-12.012,12.012-12.012c9.731,0,12.265,4.235,12.364,4.417c0.809,1.411,2.604,1.971,4.047,1.197
				c1.431-0.768,2.018-2.499,1.29-3.953c-0.393-0.786-4.223-7.666-17.702-7.666C126.541,200.704,121.819,210.412,121.82,218.723z"/>
			<path fill="#4B74FF" d="M145.844,269.776c0,11.071,7.754,15.015,15.015,15.015c7.044,0,13.432-6.182,14.136-6.886
				c1.173-1.17,1.173-3.068,0-4.241c-1.173-1.179-3.068-1.176-4.241-0.009c-1.443,1.425-6.018,5.129-9.895,5.129
				c-4.112,0-9.009-1.563-9.009-9.009c0-7.472,12.071-15.015,39.04-15.015c27.55,0,33.134,15.804,33.186,15.966
				c0.528,1.578,2.217,2.431,3.801,1.898c1.572-0.522,2.422-2.223,1.9-3.798c-0.276-0.818-7.056-20.072-38.888-20.072
				C157.68,248.754,145.844,259.614,145.844,269.776z"/>
		</g>
	</g>
</g>
<line fill="none" stroke="#4B74FF" stroke-width="6.7874" stroke-linecap="round" stroke-miterlimit="10" x1="527.097" y1="344.268" x2="421.936" y2="344.268"/>
<line fill="none" stroke="#4B74FF" stroke-width="6.7874" stroke-linecap="round" stroke-miterlimit="10" x1="166.856" y1="344.268" x2="23.108" y2="344.268"/>
</svg>
