<?xml version="1.0" encoding="utf-8"?>
<!-- Generator: Adobe Illustrator 17.0.0, SVG Export Plug-In . SVG Version: 6.00 Build 0)  -->
<!DOCTYPE svg PUBLIC "-//W3C//DTD SVG 1.1//EN" "http://www.w3.org/Graphics/SVG/1.1/DTD/svg11.dtd">
<svg version="1.1" id="Layer_1" xmlns="http://www.w3.org/2000/svg" xmlns:xlink="http://www.w3.org/1999/xlink" x="0px" y="0px"
	 width="24.817px" height="26px" viewBox="0 0 24.817 26" enable-background="new 0 0 24.817 26" xml:space="preserve">
<title>download</title>
<desc>Created with Sketch.</desc>
<g>
	<defs>
		<path id="SVGID_1_" d="M17.992,23.008H6.746v-6.854h11.246V23.008z M18.957,14.224H5.781c-0.533,0-0.965,0.432-0.965,0.965v8.784
			c0,0.533,0.432,0.965,0.965,0.965h13.176c0.533,0,0.965-0.432,0.965-0.965v-8.784C19.922,14.656,19.49,14.224,18.957,14.224z
			 M21.153,8.734H3.585c-1.743,0-3.161,1.418-3.161,3.161v5.49c0,1.743,1.418,3.161,3.161,3.161h2.196
			c0.533,0,0.965-0.432,0.965-0.965c0-0.533-0.432-0.965-0.965-0.965H3.585c-0.679,0-1.231-0.552-1.231-1.231v-5.49
			c0-0.679,0.552-1.231,1.231-1.231h17.568c0.679,0,1.231,0.552,1.231,1.231v5.49c0,0.679-0.552,1.231-1.231,1.231h-2.196
			c-0.533,0-0.965,0.432-0.965,0.965s0.432,0.965,0.965,0.965h2.196c1.743,0,3.161-1.418,3.161-3.161v-5.49
			C24.314,10.152,22.896,8.734,21.153,8.734z M18.957,1.048H5.781c-0.533,0-0.965,0.432-0.965,0.965v7.686
			c0,0.533,0.432,0.965,0.965,0.965s0.965-0.432,0.965-0.965V2.978h11.246v6.721c0,0.533,0.432,0.965,0.965,0.965
			c0.533,0,0.965-0.432,0.965-0.965V2.013C19.922,1.48,19.49,1.048,18.957,1.048z"/>
	</defs>
	<use xlink:href="#SVGID_1_"  overflow="visible"/>
	<clipPath id="SVGID_2_">
		<use xlink:href="#SVGID_1_"  overflow="visible"/>
	</clipPath>
</g>
</svg>
