<?xml version="1.0" encoding="utf-8"?>
<!-- Generator: Adobe Illustrator 17.0.0, SVG Export Plug-In . SVG Version: 6.00 Build 0)  -->
<!DOCTYPE svg PUBLIC "-//W3C//DTD SVG 1.1//EN" "http://www.w3.org/Graphics/SVG/1.1/DTD/svg11.dtd">
<svg version="1.1" id="Layer_1" xmlns="http://www.w3.org/2000/svg" xmlns:xlink="http://www.w3.org/1999/xlink" x="0px" y="0px"
	 width="17px" height="18px" viewBox="0 0 17 18" enable-background="new 0 0 17 18" xml:space="preserve">
<title>Group 3</title>
<desc>Created with Sketch.</desc>
<g>
	<defs>
		<path id="SVGID_1_" d="M14.717,14.918H2.284c-0.135-0.002-0.268-0.039-0.385-0.106c-0.184-0.106-0.315-0.277-0.37-0.482
			c-0.055-0.204-0.027-0.416,0.077-0.599L7.822,3.352c0.066-0.108,0.158-0.2,0.266-0.266c0.181-0.11,0.395-0.143,0.601-0.092
			c0.206,0.05,0.379,0.178,0.489,0.358l6.217,10.378c0.067,0.117,0.103,0.25,0.104,0.385C15.505,14.552,15.154,14.911,14.717,14.918
			z M16.561,13.052c-0.002-0.003-0.004-0.006-0.005-0.009L10.335,2.657c-0.001-0.001-0.001-0.002-0.002-0.003
			c-0.297-0.49-0.767-0.834-1.323-0.97C8.454,1.547,7.878,1.636,7.389,1.933C7.095,2.111,6.846,2.36,6.668,2.654
			C6.667,2.655,6.667,2.656,6.666,2.657L0.445,13.042c-0.002,0.003-0.004,0.006-0.005,0.009c-0.286,0.496-0.362,1.073-0.214,1.626
			c0.148,0.553,0.503,1.015,0.999,1.302c0.318,0.184,0.681,0.283,1.048,0.287c0.002,0,0.005,0,0.007,0h12.442
			c0.002,0,0.005,0,0.007,0c1.182-0.013,2.133-0.985,2.12-2.167C16.845,13.732,16.745,13.37,16.561,13.052z M8.977,12.178
			c0.126,0.126,0.198,0.299,0.198,0.477c0,0.178-0.072,0.351-0.198,0.477c-0.126,0.126-0.299,0.198-0.477,0.198
			c-0.177,0-0.351-0.072-0.477-0.198c-0.125-0.126-0.198-0.299-0.198-0.477c0-0.177,0.072-0.351,0.198-0.477
			C8.149,12.052,8.323,11.98,8.5,11.98C8.678,11.98,8.852,12.052,8.977,12.178z M8.5,6.104c0.373,0,0.674,0.302,0.674,0.674v2.938
			c0,0.373-0.302,0.674-0.674,0.674c-0.372,0-0.674-0.302-0.674-0.674V6.779C7.826,6.406,8.128,6.104,8.5,6.104z"/>
	</defs>
	<use xlink:href="#SVGID_1_"  overflow="visible" fill="#747474"/>
	<clipPath id="SVGID_2_">
		<use xlink:href="#SVGID_1_"  overflow="visible"/>
	</clipPath>
	<g clip-path="url(#SVGID_2_)">
		<defs>
			<rect id="SVGID_3_" x="-39.923" y="-86.319" width="801.482" height="569.943"/>
		</defs>
		<use xlink:href="#SVGID_3_"  overflow="visible" fill="#747474"/>
		<clipPath id="SVGID_4_">
			<use xlink:href="#SVGID_3_"  overflow="visible"/>
		</clipPath>
		<rect x="-2.632" y="-1.162" clip-path="url(#SVGID_4_)" fill="#747474" width="22.263" height="20.212"/>
	</g>
</g>
</svg>
