<?xml version="1.0" encoding="UTF-8"?>
<svg width="19px" height="18px" viewBox="0 0 19 18" version="1.1" xmlns="http://www.w3.org/2000/svg" xmlns:xlink="http://www.w3.org/1999/xlink">
    <!-- Generator: Sketch 52.2 (67145) - http://www.bohemiancoding.com/sketch -->
    <title>close</title>
    <desc>Created with Sketch.</desc>
    <g id="V1" stroke="none" stroke-width="1" fill="none" fill-rule="evenodd" stroke-linecap="round" stroke-linejoin="round">
        <g id="Artboard-2" transform="translate(-380.000000, -114.000000)" fill="#000000" stroke="#000000" stroke-width="0.986702128">
            <g id="Group-9" transform="translate(40.000000, 81.000000)">
                <g id="close" transform="translate(341.398936, 33.547872)">
                    <path d="M7.47329064,8.38537592 L0.233603111,1.14568839 C-0.0495670565,0.862518224 -0.0750994363,0.428360023 0.176614754,0.176645833 C0.428328944,-0.0750683568 0.862483583,-0.0495965459 1.14568582,0.233605687 L8.38537335,7.47329322 L15.6250609,0.233605687 C15.9082631,-0.0495965459 16.3424178,-0.0750683568 16.5941319,0.176645833 C16.8458461,0.428360023 16.8203138,0.862518224 16.5371436,1.14568839 L9.41131906,8.27151291 L9.43544756,8.27704618 L9.8598815,8.94780137 L16.5371115,15.6250314 C16.8203138,15.9082336 16.8458176,16.3424203 16.5941034,16.5941345 C16.3423892,16.8458487 15.908231,16.8203163 15.6250288,16.5371141 L8.38537335,9.29745863 L1.14571788,16.5371141 C0.862515648,16.8203163 0.428357447,16.8458487 0.176643257,16.5941345 C-0.0750709329,16.3424203 -0.0495670565,15.9082336 0.233635176,15.6250314 L7.47329064,8.38537592 Z" id="Combined-Shape"></path>
                </g>
            </g>
        </g>
    </g>
</svg>