<?xml version="1.0" encoding="UTF-8"?>
<svg width="100px" height="100px" viewBox="0 0 100 100" version="1.1" xmlns="http://www.w3.org/2000/svg" xmlns:xlink="http://www.w3.org/1999/xlink">
    <!-- Generator: Sketch 52.6 (67491) - http://www.bohemiancoding.com/sketch -->
    <title>help-icon</title>
    <desc>Created with Sketch.</desc>
    <g id="V1" stroke="none" stroke-width="1" fill="none" fill-rule="evenodd">
        <g id="help-icon" fill="#5E5E5E">
            <path d="M47.9672798,67 C45.2223472,67 43,69.2727273 43,72 C43,74.6622578 45.1569069,77 47.9672798,77 C50.7776528,77 53,74.6624441 53,72 C53,69.2727273 50.7125874,67 47.9672798,67 Z" id="Path"></path>
            <path d="M49.4535735,27 C40.2340708,27 36,32.4473226 36,36.1243874 C36,38.7801648 38.2534951,40.0057879 40.0975132,40.0057879 C43.7851575,40.0057879 42.2828274,34.7626056 49.248639,34.7626056 C52.663364,34.7626056 55.3951047,36.2607414 55.3951047,39.3929763 C55.3951047,43.0702365 51.5707069,45.1809886 49.3170158,47.0876003 C47.336636,48.7898764 44.7414529,51.5818124 44.7414529,57.4378063 C44.7414529,60.9785171 45.6973565,62 48.497474,62 C51.8438222,62 52.5266104,60.5020595 52.5266104,59.2082594 C52.5266104,55.6673532 52.5951831,53.6245828 56.3512042,50.6966835 C58.1950264,49.2667247 64,44.636354 64,38.2355302 C64,31.8347064 58.1950264,27 49.4535735,27 Z" id="Path"></path>
            <path d="M50,0 C22.3664063,0 0,22.3626953 0,50 L0,96.09375 C0,98.2511719 1.74882813,100 3.90625,100 L50,100 C77.6333984,100 100,77.6373047 100,50 C100,22.3664063 77.6373047,0 50,0 Z M50,92.1875 L7.8125,92.1875 L7.8125,50 C7.8125,26.6841797 26.6810547,7.8125 50,7.8125 C73.3158203,7.8125 92.1875,26.6810547 92.1875,50 C92.1875,73.3158203 73.3189453,92.1875 50,92.1875 Z" id="Shape" fill-rule="nonzero"></path>
        </g>
    </g>
</svg>